# xmcd
# Copyright (C) 1995-1998 Ti Kan
#
# Track frame offsets:
#       150
#       12000
#       32093
#       47643
#       62428
#       80377
#       98485
#       115288
#       134914
#       153943
#       170043
#       183215
#       200801
#       217150
#       231837
#
# Disc length: 3309 seconds
#
# Revision: 14
# Processed by: cddbd v1.5.1PL0 Copyright (c) Steve Scherf et al.
# Submitted via: CD-Transfer v1.0
#
DISCID=cc0ceb0f
DTITLE=Janette - Euro Express 576
DYEAR=04
DGENRE=
TTITLE0=Baby Cakes
TTITLE1=The Closer I Get To You
TTITLE2=If It Makes You
TTITLE3=1985
TTITLE4=Wasting My Time
TTITLE5=Que Te Pasa
TTITLE6=Lion Dub
TTITLE7=She Was
TTITLE8=Viens Jasgu'a Moi
TTITLE9=I Want More (Radio Vers.)
TTITLE10=Lou-Ee-Lou-Ee
TTITLE11=Won't Give In
TTITLE12=Light In Her Window (Low Mix)
TTITLE13=R&b Junkie
TTITLE14=Hold The Line (Radio Edit)
EXTD=
EXTT0=
EXTT1=
EXTT2=
EXTT3=
EXTT4=
EXTT5=
EXTT6=
EXTT7=
EXTT8=
EXTT9=
EXTT10=
EXTT11=
EXTT12=
EXTT13=
EXTT14=
PLAYORDER=
